<svg xmlns="http://www.w3.org/2000/svg" xmlns:xlink="http://www.w3.org/1999/xlink" version="1.1" x="0px" y="0px" viewBox="0 0 100 125" enable-background="new 0 0 100 100" xml:space="preserve"><g display="none"><rect x="-137.382" y="-968.38" display="inline" fill="#000000" stroke="#000000" stroke-width="0.4634" stroke-miterlimit="10" width="1226.941" height="1582.379"/></g><g><path d="M50,96.498c25.639,0,46.498-20.859,46.498-46.498S75.639,3.502,50,3.502C24.361,3.502,3.502,24.361,3.502,50   S24.361,96.498,50,96.498z M50,8.002c23.158,0,41.998,18.84,41.998,41.997c0,23.158-18.84,41.998-41.998,41.998   S8.002,73.158,8.002,50C8.002,26.842,26.842,8.002,50,8.002z"/><path d="M50,87.836c20.863,0,37.837-16.973,37.837-37.836S70.863,12.164,50,12.164c-20.863,0-37.836,16.973-37.836,37.836   S29.137,87.836,50,87.836z M50,13.998c19.852,0,36.002,16.15,36.002,36.002S69.851,86.002,50,86.002S13.998,69.852,13.998,50   S30.148,13.998,50,13.998z"/><circle cx="66.851" cy="52.667" r="2.517"/><circle cx="66.851" cy="63.556" r="2.517"/><circle cx="66.851" cy="74.445" r="2.517"/><circle cx="58.811" cy="58.111" r="2.517"/><circle cx="58.811" cy="69" r="2.517"/><circle cx="58.811" cy="79.889" r="2.517"/><circle cx="50.772" cy="63.556" r="2.517"/><circle cx="50.772" cy="74.445" r="2.517"/><circle cx="42.732" cy="69" r="2.517"/><path d="M30.168,59.382l-1.544,4.714c-0.261,0.741,0.493,1.712,1.741,1.946c1.24,0.265,2.313-0.338,2.356-1.113l0.4-4.945   c2.839,0.23,5.764-0.485,8.26-2.23l2.843,4.066c0.542,0.605,1.425,0.758,2.115,0.267c0.679-0.486,0.854-1.404,0.391-2.051   l-2.887-4.034l7.1-5.08l2.887,4.034c0.463,0.647,1.388,0.778,2.067,0.292c0.679-0.486,0.854-1.404,0.391-2.051l-2.887-4.034   l3.55-2.54c1.22-0.873,2.226-1.935,3.033-3.108l4.087,2.812c0.64,0.462,1.784,0.005,2.363-1.132h0   c0.601-1.124,0.326-2.321-0.406-2.58l-4.636-1.765c1.033-2.715,1.13-5.75,0.193-8.559l4.706-1.569   c0.747-0.229,1.053-1.415,0.506-2.569c-0.545-1.16-1.65-1.667-2.319-1.225l-4.196,2.646c-0.132-0.209-0.255-0.421-0.4-0.624   c-1.621-2.266-3.87-3.823-6.343-4.633l1.544-4.714c0.261-0.741-0.493-1.712-1.741-1.946c-1.24-0.265-2.313,0.338-2.356,1.113   l-0.4,4.945c-2.839-0.23-5.764,0.485-8.26,2.23l-2.843-4.066c-0.542-0.605-1.425-0.758-2.115-0.267   c-0.679,0.486-0.854,1.404-0.391,2.05l2.887,4.034l-7.1,5.08l-2.887-4.034c-0.463-0.647-1.388-0.778-2.067-0.292   c-0.679,0.485-0.854,1.404-0.391,2.05l2.887,4.034l-3.55,2.54c-1.22,0.873-2.226,1.935-3.033,3.108l-4.087-2.812   c-0.64-0.462-1.784-0.005-2.363,1.132c-0.601,1.123-0.327,2.32,0.406,2.58l4.636,1.765c-1.033,2.715-1.13,5.75-0.193,8.559   l-4.706,1.569c-0.747,0.229-1.053,1.415-0.507,2.569c0.545,1.16,1.65,1.667,2.319,1.225l4.196-2.646   c0.131,0.209,0.255,0.421,0.4,0.624C25.447,57.015,27.695,58.573,30.168,59.382z"/></g></svg>
