<svg xmlns="http://www.w3.org/2000/svg" xmlns:xlink="http://www.w3.org/1999/xlink" version="1.1" x="0px" y="0px" viewBox="-43.5 198.3 200 250" style="enable-background:new -43.5 198.3 200 200;" xml:space="preserve"><g><g><path d="M95.8,322.3c10-11.4,16.1-26.3,16.1-42.6c0-10.6-2.6-20.6-7.1-29.4c-6.7-13-17.7-23.5-31.1-29.6c-8.1-3.6-17-5.7-26.4-5.7    c-35.6,0-64.6,29-64.6,64.6c0,11.2,2.9,21.8,7.9,31c1.7,3.1,3.7,6.1,5.9,8.9c3.6,4.6,7.8,8.6,12.4,12.1c3,2.2,6.2,4.2,9.6,5.9    c8.7,4.3,18.4,6.8,28.7,6.8c13.9,0,26.7-4.4,37.2-11.9l39.8,39.8l10.7-10.7L95.8,322.3z M47.3,230.3c8.3,0,16,2,22.9,5.6    c-0.2,3.9,0,7.7,0.2,11c0,0.8,0.1,1.6,0.2,2.5c-1.1-0.1-2.3-0.2-3.4-0.3l-2.4-0.2l-0.2,0c-21.1,1-30.8,11.9-32,13.3    c-4.9,5.3-8.6,12.3-10.7,20.1l-0.1,0.3c-0.2,1.2-0.5,2.4-0.7,3.6c-0.3,1.6-0.6,3.2-0.9,4.9c-0.6,3.5-0.9,6.4-1,9.2l0,0.1l0,0.1    c0,0.7,0,1.4,0.1,2.1c-4.6,0.2-9.5,1-14.6,2.2c-4.3-7.3-6.8-15.9-6.8-25C-2.1,252.5,20,230.3,47.3,230.3z M86.4,249.5    c-2.8,0.3-5.8,0.3-8.8,0.2c-0.1-1.1-0.2-2.1-0.3-3.2c-0.1-2.1-0.2-4.2-0.2-6.2C80.6,243,83.7,246.1,86.4,249.5z M28.3,285.8    c0.1-0.6,0.2-1.2,0.3-1.8c0.5-1.8,1-3.5,1.7-5.2l19.5,18.7c-2,0.9-4.1,1.7-6.3,2.4L28.3,285.8z M38,301.3    c-3.6,0.7-7.5,1.1-11.7,1.2c0-0.7-0.1-1.4-0.1-2.1c0.1-2.4,0.4-4.9,0.9-8.1c0.1-0.3,0.1-0.6,0.2-0.9L38,301.3z M32.6,274.2    c1.1-2.1,2.4-4,3.8-5.7l23.6,22.6c-1.7,1.4-3.5,2.8-5.5,4L32.6,274.2z M39.6,265c1.1-1,2.7-2.3,5-3.6l22.2,21.5    c-1,1.7-2.2,3.3-3.5,4.8L39.6,265z M49.2,259.1c1.8-0.7,3.9-1.4,6.2-1.9L71,271.8c-0.3,1.4-0.6,2.8-1.1,4.2    c-0.3,0.8-0.5,1.6-0.9,2.4L49.2,259.1z M61.4,256.2c1-0.1,2.1-0.2,3.2-0.3l2,0.2c1.6,0.1,3.2,0.3,4.7,0.4c0.2,2.1,0.4,4,0.5,6    c0,1.1,0,2.3,0,3.4L61.4,256.2z M19.7,312c-0.2,2.6-0.5,5.2-1.1,7.7l-9.1-8.8c3.5-0.7,6.9-1.1,10.1-1.3    C19.6,310.4,19.6,311.2,19.7,312z M24.7,323.7c1-3.7,1.7-7.5,1.9-11.4l0-0.1l0-0.1c0-0.9,0-1.7-0.1-2.6    c11.6-0.3,20.9-2.5,28.9-6.8c10.6-5.7,17.9-14.1,21.1-24.5c1.6-5,2.3-10.3,2.1-15.8c0-1.9-0.2-3.7-0.4-5.5c3.1,0.1,6.1,0,9.1-0.3    c1.1-0.1,2.1-0.3,3.2-0.5c3.9,7.1,6.1,15.1,6.1,23.8c0,27.3-22.2,49.4-49.4,49.4C39.2,329.2,31.5,327.2,24.7,323.7z"/></g></g></svg>
