<svg xmlns="http://www.w3.org/2000/svg" xmlns:xlink="http://www.w3.org/1999/xlink" version="1.1" x="0px" y="0px" viewBox="0 0 100 125" enable-background="new 0 0 100 100" xml:space="preserve"><path d="M12.055,86.9l0.969-1.508h5.911h9.991v-6.339v-2.122c-3.649-2.013-6.122-5.895-6.122-10.357c0-0.589,0.057-1.163,0.14-1.728  c-2.696-6.863-6.391-19.154-1.735-26.198c2.189-3.31,5.009-5.672,7.9-7.34l-4.125-4.126c-1.138,0.919-2.762,0.902-3.768-0.106  l-0.377-0.376l-0.462-0.464c-1.082-1.082-1.036-2.883,0.101-4.021l13.271-13.27c1.138-1.138,2.939-1.184,4.02-0.102l0.381,0.379  l0.458,0.46c1.007,1.007,1.026,2.63,0.107,3.769l18.648,18.649L55.8,33.664l2.473,2.473l10.831,10.831  c0.798-0.405,1.787-0.299,2.453,0.368l0.308,0.306l0.335,0.337c0.831,0.83,0.831,2.178,0,3.007l-9.682,9.683  c-0.831,0.83-2.177,0.83-3.005,0l-0.265-0.264l-0.38-0.38c-0.668-0.667-0.773-1.657-0.367-2.455L48.234,47.305l-3.038-3.038  l-1.565,1.565l-7.168-7.168c-0.406,0.42-0.785,0.842-1.105,1.267c-4.115,5.458-1.414,11.248,1.426,15.025  c5.5,1.015,9.669,5.825,9.669,11.618c0,0.225-0.021,0.444-0.034,0.665l3.301-0.26l-0.065-0.813l-0.096-1.226l39.717-3.15l0.077,0.97  l0.141,1.761l-5.807,0.461v6.305v0.432h-0.023c-0.219,2.576-2.376,4.6-5.009,4.6h-8.344v2.508v6.565h5.767h3.627l0.581,1.508  l0.93,5.038h-4.457H18.256h-7.75L12.055,86.9z"/></svg>
