<svg xmlns="http://www.w3.org/2000/svg" viewBox="0 0 52.16 27.5875" x="0px" y="0px"><title>staff</title><path d="M522.16,425.81a4.88,4.88,0,1,1,4.88,4.88A4.88,4.88,0,0,1,522.16,425.81Zm5.79,6.84c-5.59,0-10.12,4.15-10.12,9.28a5.26,5.26,0,0,0,.07.86c0,0.23.25,0.22,0.48,0.22h19.13c0.23,0,.45,0,0.48-0.22a6.51,6.51,0,0,0,.07-1C538.08,436.7,533.55,432.64,528,432.64ZM508.42,443a7.92,7.92,0,0,0,0-.85,10.46,10.46,0,0,0-2.84-7.06,10.59,10.59,0,0,1,6.85-2.45,10.76,10.76,0,0,1,6.25,2,10.12,10.12,0,0,0-3.16,7.28c0,0.21,0,1.12,0,1.12h-7.17Zm4-12.31a4.88,4.88,0,1,0-4.88-4.88A4.88,4.88,0,0,0,512.46,430.69Zm-20.38-4.88a4.88,4.88,0,1,1,4.88,4.88A4.88,4.88,0,0,1,492.07,425.81Zm4,6.84c-5.59,0-10.12,4.15-10.12,9.28a5.26,5.26,0,0,0,.07.86c0,0.23.25,0.22,0.48,0.22h19.13c0.23,0,.45,0,0.48-0.22a6.51,6.51,0,0,0,.07-1C506.17,436.7,501.64,432.64,496,432.64Z" transform="translate(-485.92 -420.93)"/></svg>
