<svg xmlns="http://www.w3.org/2000/svg" data-name="Layer 1" viewBox="0 0 100 125" x="0px" y="0px">
    <path d="M92.12,63V73.58A2.09,2.09,0,0,1,90,75.67H10a2.09,2.09,0,0,1-2.08-2.08V63a2.06,2.06,0,0,1,.36-1.17,7.28,7.28,0,0,1,9.52-4.56l6.85,2.62a15.6,15.6,0,0,0,5.57,1H90A2.09,2.09,0,0,1,92.12,63ZM15,85.86H21.4V77.15H15v8.71Zm65.79,0h6.41V77.15H80.77v8.71ZM35.42,56.78h45l6.46-6a3,3,0,0,0,0-4.39,3.51,3.51,0,0,0-4.72,0l-4.51,4.2H67.37c-3.41-.62-6.82-1.24-10.23-1.89-4.23-.8-8.45-1.69-12.66-2.61-13.27-2.9-12.41,7.6-12.41,7.6A3.23,3.23,0,0,0,35.42,56.78Zm-14.3-2.9A7.91,7.91,0,1,0,13.21,46,7.91,7.91,0,0,0,21.11,53.88Zm23.6-26.31A13.44,13.44,0,1,1,58.15,41,13.44,13.44,0,0,1,44.71,27.57Zm6,1.82h5.6V35H60V29.38h5.61V25.75H60v-5.6H56.34v5.6h-5.6v3.64Z"/>
</svg>
