<svg xmlns="http://www.w3.org/2000/svg" xmlns:xlink="http://www.w3.org/1999/xlink" version="1.1" x="0px" y="0px" viewBox="0 0 64 80" enable-background="new 0 0 64 64" xml:space="preserve"><g display="none"><rect x="-148.007" y="-229.62" display="inline" fill="#000000" width="365.668" height="372.667"/></g><g><path d="M8,0v64h40.667L56,56.667V0H8z M41.514,8.413l4.904,7.268H43.15v11.287h-3.272V15.681h-3.268L41.514,8.413z M31.856,11.455   l4.904,7.268h-3.268v8.245H30.22v-8.245h-3.267L31.856,11.455z M22.5,14.749l4.904,7.268h-3.268v4.951h-3.272v-4.951h-3.268   L22.5,14.749z M48.763,52.354H15.236v-1.4h33.527V52.354z M48.763,48.619H15.236v-1.4h33.527V48.619z M48.763,44.883H15.236v-1.4   h33.527V44.883z M48.763,41.147H15.236v-1.4h33.527V41.147z M48.763,37.411H15.236v-1.4h33.527V37.411z M48.763,33.676H15.236v-1.4   h33.527V33.676z M48.879,61.808v-4.929h4.929L48.879,61.808z"/></g></svg>
