<svg xmlns="http://www.w3.org/2000/svg" xmlns:xlink="http://www.w3.org/1999/xlink" version="1.1" x="0px" y="0px" viewBox="0 0 100 125" enable-background="new 0 0 100 100" xml:space="preserve"><g display="none"><rect x="-857.382" y="-968.38" display="inline" fill="#000000" stroke="#000000" stroke-width="0.4634" stroke-miterlimit="10" width="1226.941" height="1582.379"/></g><g><path d="M29.034,56.366c-1.033,1.514-1.472,3.151-1.592,4.464c-0.067,0.65-0.038,1.234-0.02,1.629   c0.034,0.411,0.077,0.652,0.077,0.652c0.601,3.378,3.45,6.036,7.026,6.249c0,0,0.244,0.015,0.656,0.001   c0.395-0.029,0.978-0.068,1.616-0.21c1.29-0.272,2.865-0.899,4.248-2.102c0.683-0.609,1.366-1.32,1.873-2.262   c0.515-0.936,0.822-2.133,1.013-3.484c0.217-1.327,0.355-2.776,0.805-3.973c0.446-1.2,1.153-2.193,2.173-2.908   c1.024-0.712,2.45-1.065,3.978-1.303c1.503-0.26,2.998-0.501,4.065-1.073c1.093-0.548,1.772-1.415,2.429-2.224   c0.646-0.819,1.163-1.677,1.58-2.523c0.408-0.854,0.716-1.695,0.927-2.495c0.206-0.805,0.347-1.542,0.402-2.202   c0.04-0.674,0.081-1.195,0.051-1.602c-0.008-0.387-0.04-0.618-0.04-0.618c-0.476-3.468-3.415-6.175-7.026-6.249   c0,0-0.233-0.005-0.619,0.032c-0.408,0.017-0.921,0.119-1.586,0.237c-0.649,0.132-1.365,0.357-2.14,0.656   c-0.77,0.304-1.57,0.708-2.37,1.212c-0.791,0.513-1.583,1.127-2.321,1.864c-0.728,0.747-1.509,1.522-1.926,2.671   c-0.444,1.126-0.509,2.639-0.592,4.162c-0.058,1.545-0.243,3.003-0.83,4.102c-0.591,1.097-1.495,1.914-2.635,2.497   c-1.136,0.586-2.559,0.892-3.852,1.262c-1.319,0.347-2.472,0.792-3.342,1.412C30.185,54.856,29.559,55.616,29.034,56.366z"/><path d="M56.974,61.37c-0.915,0.107-1.619,0.545-2.292,0.949c-0.668,0.414-1.256,0.888-1.769,1.379   c-1.019,0.996-1.727,2.086-2.151,2.983c-0.202,0.467-0.365,0.825-0.448,1.121c-0.094,0.276-0.131,0.448-0.131,0.448   c-0.556,2.578,0.827,5.251,3.365,6.234c0,0,0.164,0.063,0.446,0.136c0.293,0.093,0.682,0.153,1.184,0.24   c0.982,0.138,2.282,0.144,3.674-0.161c0.692-0.159,1.411-0.39,2.123-0.722c0.707-0.341,1.46-0.689,2.052-1.395   c0.604-0.683,1.04-1.737,1.491-2.794c0.439-1.079,0.945-2.063,1.644-2.691c0.702-0.622,1.549-0.975,2.511-1.084   c0.95-0.132,2.04,0.025,3.05,0.093c1.023,0.094,1.954,0.076,2.73-0.139c0.779-0.209,1.418-0.586,1.983-0.982   c1.121-0.806,1.854-1.852,2.277-2.75c0.422-0.9,0.547-1.63,0.547-1.63c0.437-2.544-0.893-5.156-3.365-6.234   c0,0-0.678-0.296-1.662-0.437c-0.983-0.139-2.26-0.101-3.549,0.394c-0.641,0.255-1.307,0.583-1.909,1.119   c-0.605,0.53-1.131,1.298-1.614,2.205c-0.497,0.882-0.964,1.879-1.596,2.601c-0.619,0.745-1.38,1.259-2.285,1.504   c-0.908,0.24-2.009,0.123-3.152-0.102C58.997,61.454,57.876,61.24,56.974,61.37z"/><path d="M74.86,45.976c3.714,0,6.735-3.021,6.735-6.735c0-3.715-3.021-6.736-6.735-6.736c-3.715,0-6.736,3.021-6.736,6.736   C68.124,42.955,71.145,45.976,74.86,45.976z M74.86,35.795c1.899,0,3.444,1.546,3.444,3.445s-1.545,3.444-3.444,3.444   s-3.445-1.545-3.445-3.444S72.96,35.795,74.86,35.795z"/><polygon points="29.026,45.85 29.026,42.78 32.097,42.78 32.097,37.756 29.026,37.756 29.026,34.685 24.002,34.685 24.002,37.756    20.932,37.756 20.932,42.78 24.002,42.78 24.002,45.85  "/><polygon points="41.659,30.51 47.624,30.51 47.624,26.864 51.271,26.864 51.271,20.899 47.624,20.899 47.624,17.252 41.659,17.252    41.659,20.899 38.012,20.899 38.012,26.864 41.659,26.864  "/><path d="M50,96.498c25.639,0,46.497-20.859,46.497-46.498S75.639,3.502,50,3.502S3.502,24.361,3.502,50S24.362,96.498,50,96.498z    M50,8.002c23.157,0,41.997,18.84,41.997,41.997c0,23.158-18.84,41.998-41.997,41.998C26.842,91.998,8.002,73.158,8.002,50   C8.002,26.842,26.842,8.002,50,8.002z"/><path d="M50,87.835c20.863,0,37.836-16.973,37.836-37.836S70.864,12.164,50,12.164S12.165,29.136,12.165,50   S29.137,87.835,50,87.835z M50,13.998c19.852,0,36.002,16.15,36.002,36.002S69.852,86.001,50,86.001S13.999,69.851,13.999,50   S30.149,13.998,50,13.998z"/></g></svg>
