<svg xmlns="http://www.w3.org/2000/svg" xmlns:xlink="http://www.w3.org/1999/xlink" version="1.1" x="0px" y="0px" viewBox="0 0 512 640" enable-background="new 0 0 512 512" xml:space="preserve"><g><path d="M510,303.4v-94.7l-49.5-12.4c-4.3-14.7-10.2-29-17.7-42.6l26.3-43.8l-67-67l-43.8,26.3c-13.6-7.4-27.8-13.4-42.6-17.7   L303.4,2h-94.7l-12.4,49.5c-14.7,4.3-29,10.2-42.6,17.7l-43.8-26.3l-67,67l26.3,43.8c-7.4,13.6-13.4,27.8-17.7,42.6L2,208.6v94.7   l49.5,12.4c4.3,14.8,10.2,29,17.7,42.6l-26.3,43.8l67,67l43.8-26.3c15,8.2,30.9,14.6,47.3,19l4.2-15.8   c-16.6-4.4-32.6-11.1-47.5-19.7l-4.2-2.4l-41,24.6l-48.9-48.9l24.6-41l-2.4-4.2c-8.7-15-15.3-30.9-19.7-47.5l-1.2-4.7l-46.4-11.6   v-69.1l46.4-11.6l1.2-4.7c4.4-16.6,11.1-32.6,19.7-47.5l2.4-4.2l-24.6-41l48.9-48.9l41,24.6l4.2-2.4c15-8.7,30.9-15.3,47.5-19.7   l4.7-1.2l11.6-46.4h69.1l11.6,46.4l4.7,1.2c16.6,4.4,32.6,11.1,47.5,19.7l4.2,2.4l41-24.6l48.9,48.9l-24.6,41l2.4,4.2   c8.7,15,15.3,30.9,19.7,47.5l1.2,4.7l46.4,11.6v69.1l-46.4,11.6l-1.2,4.7c-4.4,16.6-11.1,32.6-19.7,47.5l-2.4,4.2l24.6,41.1   l-48.9,48.9l-41-24.6l-4.2,2.4c-15,8.7-30.9,15.3-47.5,19.7l4.2,15.8c16.4-4.4,32.3-10.8,47.3-19l43.8,26.3l67-67l-26.3-43.8   c7.4-13.6,13.4-27.8,17.7-42.6L510,303.4z"/><rect x="34.8" y="247.8" width="16.4" height="16.4"/><rect x="460.8" y="247.8" width="16.4" height="16.4"/><rect x="97.2" y="97.2" transform="matrix(0.7071 0.7071 -0.7071 0.7071 105.3622 -43.6438)" width="16.4" height="16.4"/><rect x="398.4" y="398.4" transform="matrix(-0.7071 -0.7071 0.7071 -0.7071 406.6375 981.7037)" width="16.4" height="16.4"/><rect x="247.8" y="34.8" width="16.4" height="16.4"/><rect x="398.4" y="97.2" transform="matrix(0.7071 -0.7071 0.7071 0.7071 44.5991 318.3949)" width="16.4" height="16.4"/><rect x="97.2" y="398.4" transform="matrix(-0.7071 0.7071 -0.7071 -0.7071 467.4012 619.665)" width="16.4" height="16.4"/><path d="M256,157.7c-54.2,0-98.3,44.1-98.3,98.3h16.4c0-45.2,36.8-81.9,81.9-81.9V157.7z"/><path d="M280.6,393c65.1-11.7,114.7-68.6,114.7-137c0-76.8-62.5-139.3-139.3-139.3S116.7,179.2,116.7,256   c0,68.4,49.6,125.3,114.7,137v26.9H215V510h16.4v-73.7h49.2V510H297v-90.1h-16.4V393z M133.1,256c0-67.8,55.1-122.9,122.9-122.9   S378.9,188.2,378.9,256c0,67.8-55.1,122.9-122.9,122.9S133.1,323.8,133.1,256z M247.8,394.9c2.7,0.2,5.4,0.4,8.2,0.4   c2.8,0,5.5-0.3,8.2-0.4v25h-16.4V394.9z"/></g></svg>
