
<svg xmlns="http://www.w3.org/2000/svg" data-name="Layer 1" viewBox="0 0 100 125" x="0px" y="0px"><title>Artboard 29</title><path d="M84.52,13.88H17.8a8.23,8.23,0,1,0,0,16.45H84.52a8.23,8.23,0,0,0,0-16.45Zm0,10.45H56.1a3,3,0,0,0,0-4.45H84.52a2.23,2.23,0,0,1,0,4.45Z"/><path d="M84.52,69H17.8a8.23,8.23,0,0,0,0,16.45H84.52a8.23,8.23,0,0,0,0-16.45Zm0,10.45H71.1a3,3,0,0,0,0-4.45H84.52a2.23,2.23,0,0,1,0,4.45Z"/><path d="M84.52,41.44H17.8a8.23,8.23,0,0,0,0,16.45H84.52a8.23,8.23,0,0,0,0-16.45Zm0,10.45H39.1a3,3,0,0,0,0-4.45H84.52a2.23,2.23,0,0,1,0,4.45Z"/></svg>
