<svg xmlns="http://www.w3.org/2000/svg" xmlns:xlink="http://www.w3.org/1999/xlink" version="1.1" x="0px" y="0px" viewBox="0 0 100 125" enable-background="new 0 0 100 100" xml:space="preserve"><rect fill="none" width="100" height="100"/><path d="M77.818,71.695c7.192,0,13.041-5.852,13.041-13.041V22.48h1.332c1.55,0,2.809-1.256,2.809-2.808  c0-1.552-1.259-2.808-2.809-2.808h-1.332h-3.625l4.251-7.82c0.235-0.433,0.227-0.96-0.028-1.388  c-0.252-0.428-0.71-0.685-1.206-0.685H65.386c-0.497,0-0.954,0.257-1.206,0.685c-0.255,0.428-0.264,0.955-0.028,1.388l4.251,7.82  H64.78h-1.336c-1.028,0-1.889,0.576-2.377,1.404H38.93c-0.488-0.828-1.349-1.404-2.377-1.404H35.22h-3.625l4.25-7.82  c0.236-0.433,0.228-0.965-0.027-1.388c-0.253-0.428-0.711-0.685-1.207-0.685H9.749c-0.494,0-0.954,0.257-1.207,0.685  C8.291,8.08,8.279,8.611,8.516,9.044l4.25,7.82H9.138h-1.33C6.256,16.865,5,18.121,5,19.673c0,1.552,1.256,2.808,2.808,2.808h1.33  v36.174c0,7.189,5.852,13.041,13.044,13.041c7.19,0,13.039-5.852,13.039-13.041V22.48h1.333c1.028,0,1.889-0.581,2.377-1.404h8.262  v66.336H9.749c-1.549,0-2.808,1.256-2.808,2.808s1.259,2.808,2.808,2.808h80.502c1.549,0,2.808-1.256,2.808-2.808  s-1.259-2.808-2.808-2.808H52.808V21.077h8.26c0.488,0.823,1.349,1.404,2.377,1.404h1.336v36.174  C64.78,65.844,70.629,71.695,77.818,71.695z M77.818,66.08c-4.094,0-7.423-3.335-7.423-7.426v-8.857  c0.929,0.45,1.988,0.955,4.009,0.955c2.023,0,3.082-0.504,4.015-0.955c0.795-0.378,1.42-0.68,2.808-0.68s2.013,0.296,2.802,0.68  c0.365,0.176,0.767,0.351,1.215,0.51v8.347C85.243,62.745,81.912,66.08,77.818,66.08z M85.243,47.264  c-0.935-0.45-1.993-0.955-4.017-0.955c-2.026,0-3.087,0.505-4.02,0.955c-0.795,0.384-1.421,0.68-2.803,0.68  c-1.388,0-2.013-0.296-2.803-0.68c-0.362-0.17-0.762-0.346-1.206-0.505V22.48h14.848V47.264z M67.746,9.779H87.89l-3.853,7.085H71.6  L67.746,9.779z M12.11,9.779H32.25l-3.85,7.085H15.96L12.11,9.779z M22.182,66.08c-4.097,0-7.428-3.335-7.428-7.426V38.917  c0.933,0.45,1.988,0.954,4.009,0.954c2.023,0,3.085-0.504,4.02-0.954c0.792-0.378,1.417-0.68,2.808-0.68  c1.385,0,2.01,0.296,2.802,0.68c0.362,0.176,0.763,0.351,1.212,0.51v19.228C29.604,62.745,26.275,66.08,22.182,66.08z   M29.604,36.383c-0.935-0.45-1.994-0.954-4.015-0.954c-2.029,0-3.087,0.504-4.022,0.954c-0.792,0.384-1.42,0.68-2.805,0.68  s-2.01-0.296-2.799-0.68c-0.362-0.17-0.763-0.346-1.209-0.504V22.48h14.851V36.383z M72.485,41.472c0-1.552,1.255-2.808,2.808-2.808  c1.55,0,2.809,1.256,2.809,2.808c0,1.552-1.259,2.808-2.809,2.808C73.74,44.28,72.485,43.024,72.485,41.472z M78.742,36.383  c0-1.552,1.257-2.808,2.809-2.808s2.808,1.256,2.808,2.808s-1.256,2.808-2.808,2.808S78.742,37.935,78.742,36.383z M72.485,32.873  c0-1.552,1.255-2.808,2.808-2.808c1.55,0,2.809,1.256,2.809,2.808s-1.259,2.808-2.809,2.808  C73.74,35.681,72.485,34.425,72.485,32.873z"/></svg>
